<svg xmlns="http://www.w3.org/2000/svg" width="20" height="20" viewBox="0 0 20 20" fill="none">
  <path d="M4.297 19.375V6.527H.3v12.848h3.996ZM2.32 4.765c.602 0 1.16-.214 1.633-.687.43-.43.688-.988.688-1.633 0-.601-.258-1.16-.688-1.632C3.48.383 2.922.125 2.32.125A2.27 2.27 0 0 0 .688.813 2.244 2.244 0 0 0 0 2.444c0 .645.215 1.203.688 1.633.43.473.988.688 1.632.688Zm16.93 14.61v-7.047c0-1.976-.3-3.437-.86-4.383-.773-1.16-2.062-1.761-3.91-1.761-.945 0-1.718.257-2.406.687-.644.387-1.117.86-1.375 1.418h-.043V6.527H6.832v12.848h3.953v-6.36c0-.988.13-1.761.43-2.277.344-.687.988-1.031 1.933-1.031.903 0 1.504.387 1.848 1.16.172.473.258 1.203.258 2.235v6.273h3.996Z" fill="#8B8B8B"/>
</svg>
