<svg xmlns="http://www.w3.org/2000/svg" viewBox="0 0 591.64 73.73">
  <path fill="#428FEC" d="M0 .51h64.41v20H54.24v-8.53H40.53v50.43H51.6v10.1H12.65v-10.1h11.07V12H10.31v16.47H0V.51m84.73 23.17v9.52h7.89V58l-.48.35c-3.47 2.57-6.75 3.88-9.75 3.88-2.4 0-4.13-.61-5.13-1.83s-1.44-3.11-1.44-6V23.68H54.18v9.52h7.68v25.41c0 4.7 1.3 8.37 3.86 10.9s6.2 3.81 10.8 3.81a25.08 25.08 0 0 0 14.26-4.87l1.84-1.27v5.4h19.72v-9.46h-5.71V23.68h-21.9m42.12-18.63a18.11 18.11 0 0 0-4.69 12.73v5.88h-6.88v9.52h6.88V63.1h-6.89v9.46h29V63.1h-8.05V33.18h8.05v-9.52h-8.05v-6.78c0-6.83 2.94-8.27 5.41-8.27 2.18 0 3.9 1.61 5.11 4.75l9.62-7.51C153.08 2 147.91 0 140.89 0c-6.23 0-10.95 1.7-14 5.05m36.55 3-9.72 7v8.62h-6.51v9.52h6.51v27.97c0 8.3 3.9 12.17 12.28 12.17a31 31 0 0 0 11.16-2.24v-9a14.92 14.92 0 0 1-4 .69c-2.26 0-3.71-.49-4.47-1.51s-1-2.42-1-4.74V33.21h9.42v-9.52h-9.41V5l-4.3 3.09m19.47 18.06a12.9 12.9 0 0 0-4.94 10.18 12.32 12.32 0 0 0 5.22 10.31c3.56 2.65 9.49 4.66 17.64 6 4.13.68 6.85 1.4 8.32 2.19a4.1 4.1 0 0 1 2.44 3.75 4.82 4.82 0 0 1-2.55 4.16 12.59 12.59 0 0 1-6.65 1.51 14.45 14.45 0 0 1-8.27-2.25 7.73 7.73 0 0 1-3.53-5.63h-10.66v16.2h10.54V68.9l1.24 1.35c2.11 2.31 6.15 3.48 12 3.48 6.35 0 11.31-1.55 14.74-4.61a15.12 15.12 0 0 0 5.14-11.78 14.14 14.14 0 0 0-2.69-8.65 15 15 0 0 0-7.21-5.18 95.69 95.69 0 0 0-14.07-3.25c-4.1-.73-6.6-1.35-7.65-1.9a3.14 3.14 0 0 1-1.84-2.88c0-3.07 2.63-4.63 7.81-4.63 6.4 0 10.32 1.81 11.68 5.35h10.53V22.75h-10.26v2.11l-1-.42A32.49 32.49 0 0 0 196.17 22c-5.52 0-10 1.42-13.3 4.2m84.31 46.36 22.94-61.68v61.63h7.53v-72h-11.39l-20.81 57-20.81-57h-11.4v72h7.54V10.83l22.94 61.68Zm60.54-50.09c11.39 0 22.12 6.87 22.12 24.48v2.54h-37.09c.37 11.21 5.74 17.42 15.81 17.42 7.63 0 12.06-2.82 13.09-8.57h7.82c-1.7 9.89-9.89 15.07-21 15.07-13.94 0-23.82-9.79-23.82-25v-.76c0-14.87 9.51-25.23 23.07-25.23m14.12 20.71c-.75-10.17-6-14.21-14.12-14.21S314.35 34.38 313 43.13ZM395.42.51h7.87v72h-7.87V64c-2.82 4.8-9.7 9.32-16.85 9.32-12.9 0-22.23-9.14-22.23-24.48v-.76c0-15.06 9.42-25.7 23-25.7 8.19 0 13.28 4 16.1 8.76Zm.28 47c0-12.62-6-18.55-15.63-18.55-9.79 0-15.63 6.87-15.63 18.83v.75c0 12.43 6.69 18.36 15 18.36 9.13 0 16.28-6 16.28-18.64Zm17.09 25h7.81V23.68h-7.81Zm3.91-65.57a5.18 5.18 0 1 1-5.19 5.17 5.22 5.22 0 0 1 5.19-5.17m35.6 59.92c-9.51 0-16.1-6.4-16.1-18.45v-.76c0-11.58 6.87-18.73 15.82-18.73 6.78 0 12.42 2.92 13.65 10.73h7.72c-1.51-12.52-11.11-17.23-21.39-17.23-13.19 0-23.92 10.17-23.92 25.23v.76c0 15.25 10.36 25 24.1 25 11.87 0 20.44-7.91 21.47-18.55h-7.25c-.84 8-7.15 12-14.12 12m32.79-59.92a5.18 5.18 0 1 0 5.17 5.17 5.22 5.22 0 0 0-5.17-5.17m-3.9 16.74H489v48.83h-7.82Zm40.95-1.26c-8.1 0-13.56 4-15.82 8.66v-7.4h-7.81v48.83h7.81V42.66c0-8.85 6.5-13.46 13.75-13.46 7.91 0 11.58 3.86 11.58 12.52v30.79h7.81V42.29c0-14.31-7.15-19.87-17.32-19.87m69.52 27h-37.1c.38 11.21 5.74 17.42 15.82 17.42 7.63 0 12-2.82 13.09-8.57h7.81c-1.69 9.89-9.88 15.07-21 15.07-13.94 0-23.83-9.79-23.83-25v-.76c0-14.87 9.51-25.23 23.07-25.23 11.4 0 22.13 6.87 22.13 24.48Zm-8-6.31c-.76-10.17-6-14.21-14.13-14.21s-13.37 5.46-14.69 14.21Z"/>
</svg>
