<svg xmlns="http://www.w3.org/2000/svg" width="1365.33" height="1365.33" version="1.0" viewBox="0 0 1024 1024">
  <path fill="#69B4F6" d="M482.9.4c-.2.2-4.9.6-10.4 1-5.5.3-11.1.8-12.5 1-1.4.3-5.2.7-8.5 1-3.3.3-6.9.8-8 1-1.1.2-4.2.7-7 1-4.4.6-8.5 1.3-19 3.2-8.6 1.5-23.1 4.7-31.5 7-5.2 1.3-10.2 2.6-11 2.8-32.2 7.8-86 30.4-119.2 50.1-.9.5-3.6 2.1-5.9 3.3-10.6 5.8-42.6 27.9-54.5 37.5-20 16.2-30.3 25.4-46.9 42.2C104.9 195.4 70 246 45.3 301c-5.6 12.3-14.3 33.5-14.8 36-.2.8-1.3 4.2-2.6 7.5-1.8 4.9-6.8 20.4-8.4 26.5-2.3 8.3-6.5 24.9-6.9 26.9-.3 1.4-1.2 5.7-2 9.6-2.1 9.7-3.3 16.5-4.1 22.4-.2 1.4-.4 2.6-.5 2.6-.1 0-.3 1.3-.5 3-.2 1.6-.7 4.8-1 7-.3 2.2-.8 6-1 8.5-.3 2.5-.7 6.1-1 8-2.7 23.1-2.8 82-.1 105 .3 1.9.7 6.2 1.1 9.5.3 3.3.8 6.9 1 8 .3 1.1.7 3.8 1 6 .9 7 3 18.3 6.1 34.4.7 3.6 8.3 33.1 9.4 36.6 17.5 54.8 36.7 95.5 65.1 138.1 5.4 8.1 22.4 31.2 27.5 37.4 29.6 35.6 58.1 63 92.7 88.8 13.3 10 35 24.5 43.7 29.4 2.5 1.4 7 4 10 5.8 6.3 3.8 31 16.2 42 21.3 23 10.5 67.1 25.8 83.9 29.2.9.2 5.4 1.2 10.1 2.4 4.7 1.1 9.6 2.2 11 2.5 1.4.2 3.6.7 5 1 1.4.3 3.9.8 5.5 1.1 1.7.3 6.8 1.1 11.5 1.9 8.9 1.5 14.2 2.3 22.5 3.2 2.8.3 6.4.7 8 .9 18.6 2.7 84.6 2.7 106 0 1.7-.2 5.3-.7 8-1 87.4-10.5 172.4-44.2 242-96 23.3-17.4 37.9-30 59-51 25-24.9 47.5-52.6 65.9-81 11.7-18.1 12.3-19.1 22.3-37 20.8-37.3 40.5-90.4 49.9-134.9 1.7-8 2.6-12.5 3-15.1.3-1.7 1.1-6.6 1.9-11 .7-4.4 1.6-10 1.9-12.5.3-2.5.8-6.5 1.1-9 1.2-10.5 1.5-13 2.2-22.5 1.6-19.8.8-78.6-1.2-90.6-.2-1.3-.6-5.1-.9-8.4-.3-3.3-.8-6.9-1-8-.2-1.1-.7-4.5-1.1-7.5-3.6-28-14.6-71.2-25.5-100.1-2.2-5.9-4-10.9-4-11.2 0-.4-1.1-3-2.4-5.9-1.3-2.9-4.9-11-7.9-17.9-8.5-18.9-21.5-43.4-29.9-56.2-2.1-3.2-3.8-6.1-3.8-6.4 0-.2-4-6.4-9-13.6-18.2-26.7-38.3-50.9-61.5-74.2-18.1-18-21.8-21.5-39-35.6C813 96.5 783.2 76.4 759 63.3c-4.1-2.2-10.4-5.6-14-7.5-8.8-4.8-33-15.6-47-21.1-10.9-4.3-37.5-13.4-40.9-14.1-.9-.1-4.1-1-7.2-2-3.1-.9-6.6-1.9-7.8-2.1-4.1-.9-5.6-1.3-11.6-2.8-3.3-.9-7.1-1.8-8.5-2.1-1.4-.2-5-1-8-1.6-3-.6-6.6-1.3-8-1.5-1.4-.2-6.1-1.1-10.5-1.9-4.5-.8-11.2-1.7-15-2.1-3.9-.4-7.2-.9-7.5-1-.3-.2-4.3-.6-9-1s-9.8-1-11.5-1.2c-3.6-.5-69.1-1.4-69.6-.9zM850 356.6V475l-61.7-.2-61.8-.3-.1-48.5c-.1-26.7-.2-48.8-.3-49.1 0-.3-21.8-.6-48.3-.6h-48.3l-7.7 9.1c-4.3 5-8.9 10.4-10.4 12.1-4.3 5-10.5 12.3-24.4 28.5-7.3 8.5-14.2 16.6-15.4 18-5.5 6.5-22.1 25.8-24 28-3.7 4.5-14.1 16.5-14.6 17-.3.3-2.1 2.5-4.1 5-2 2.5-4.7 5.7-6 7.1-1.3 1.4-4.6 5.1-7.2 8.2-2.7 3.1-5.2 5.7-5.6 5.7-.5 0-2.9-2.7-5.5-6s-5.2-6.5-5.9-7.2c-.7-.7-3.9-4.7-7.2-8.8-3.3-4.1-6.5-8.1-7.2-8.8-.7-.7-2.9-3.4-5-6s-4-4.9-4.3-5.2c-.3-.3-2.1-2.5-4-5s-3.7-4.7-4-5c-.5-.4-14.9-18-41.5-50.5-1.8-2.2-9.2-11.2-16.4-20l-13.2-16-49-.1c-26.9-.1-49.2.3-49.5.7-.3.5-.6 22.6-.7 49.1l-.2 48.3-61.2.3-61.3.2V238.3h676v118.3zM629.8 621.2c0 57.9.1 106.3.1 107.5l.1 2.3h96.5l-.1 62c-.1 34.2-.4 62.4-.8 62.7-.4.5-420.6.8-427.3.4-.9-.1-1.1-15.4-1.1-62.6V731h98.5l-.1-106.6c-.1-58.6.2-106.8.6-107 .3-.2 1.6.8 2.8 2.3 1.2 1.6 3.7 4.6 5.5 6.8 1.9 2.2 12.2 14.8 23 28s21.1 25.8 22.9 28c1.8 2.2 10.1 12.3 18.5 22.5 8.3 10.2 16.4 19.9 17.9 21.6l2.8 3.1h42.9l8.2-9.6c4.5-5.3 9.5-11.2 11.2-13.1 1.6-1.9 11.8-13.9 22.6-26.5 10.8-12.7 20.9-24.4 22.4-26 1.4-1.7 4.9-5.7 7.6-9 2.8-3.3 6-7.1 7.3-8.5 1.2-1.4 5.7-6.6 10-11.7 4.2-5.1 7.7-9.2 7.8-9.2 0-.1.1 47.3.2 105.1z"/>
</svg>
