<svg xmlns="http://www.w3.org/2000/svg" width="22" height="19" viewBox="0 0 22 19" fill="none">
  <path d="M19.723 5.281A9.946 9.946 0 0 0 22 2.918c-.86.387-1.719.644-2.578.73.945-.601 1.633-1.418 1.976-2.492-.902.516-1.847.903-2.878 1.074a5.204 5.204 0 0 0-1.504-1.03A4.254 4.254 0 0 0 15.21.812c-.816 0-1.547.214-2.234.601-.688.43-1.247.988-1.633 1.676-.43.687-.602 1.46-.602 2.234 0 .344 0 .688.086 1.031-1.848-.085-3.566-.515-5.2-1.375-1.632-.816-2.964-1.933-4.081-3.351-.43.73-.645 1.504-.645 2.277 0 .774.172 1.504.559 2.149.344.687.86 1.203 1.46 1.633a3.71 3.71 0 0 1-2.019-.602v.086a4.27 4.27 0 0 0 1.032 2.836 4.331 4.331 0 0 0 2.578 1.59c-.43.086-.817.129-1.203.129-.258 0-.559 0-.817-.043.258.902.774 1.632 1.547 2.234.774.602 1.633.86 2.664.86-1.676 1.288-3.566 1.933-5.629 1.933-.43 0-.773 0-1.074-.043 2.063 1.375 4.383 2.02 6.918 2.02 2.621 0 4.941-.645 7.004-2.02a12.187 12.187 0 0 0 4.34-4.855c.988-1.891 1.504-3.91 1.504-5.973 0-.258-.043-.43-.043-.559Z" fill="#8B8B8B"/>
</svg>
