<svg xmlns="http://www.w3.org/2000/svg" width="25" height="17" viewBox="0 0 25 17" fill="none">
  <path d="M23.633 3.078c.172.774.344 1.977.43 3.524l.043 2.148-.044 2.148c-.085 1.633-.257 2.793-.43 3.567a3.228 3.228 0 0 1-.773 1.289 2.803 2.803 0 0 1-1.332.773c-.773.215-2.492.344-5.242.43l-3.91.043-3.91-.043c-2.75-.086-4.512-.215-5.242-.43-.516-.129-.989-.386-1.332-.773a2.491 2.491 0 0 1-.774-1.29c-.215-.773-.344-1.933-.43-3.566L.645 8.75c0-.602 0-1.332.042-2.148.086-1.547.215-2.75.43-3.524.13-.515.387-.945.774-1.332.343-.344.816-.601 1.332-.773C3.953.8 5.715.629 8.465.543L12.375.5l3.91.043c2.75.086 4.469.258 5.242.43.516.172.946.43 1.332.773.344.387.602.817.774 1.332ZM9.969 12.273l6.144-3.523L9.97 5.27v7.003Z" fill="#8B8B8B"/>
</svg>
